<svg width="80" height="619" viewBox="0 0 80 619" fill="none" xmlns="http://www.w3.org/2000/svg">
<path d="M23 97.5H34V80.5V79V77.5H61.5V97.5H50V112H40V134H24.5V147H15.5V154.5H0.5V136H8.5V118H23V97.5Z" fill="#F1BE36"/>
<path d="M34 79V80.5M34 80.5V97.5H23V118H8.5V136H0.5V154.5H15.5V147H24.5V134H40V112H50V97.5H61.5V77.5H34V80.5Z" stroke="#F1BE36"/>
<path d="M15.5 58.5V0.5H0.5V77.5H79.5V10.5H24V52.5H51V36H39.5V30H59.5V58.5H15.5Z" fill="#F1BE36" stroke="#F1BE36"/>
<path d="M23 251.5H34V234.5V233V231.5H61.5V251.5H50V266H40V288H24.5V301H15.5V308.5H0.5V290H8.5V272H23V251.5Z" fill="#F1BE36"/>
<path d="M34 233V234.5M34 234.5V251.5H23V272H8.5V290H0.5V308.5H15.5V301H24.5V288H40V266H50V251.5H61.5V231.5H34V234.5Z" stroke="#F1BE36"/>
<path d="M15.5 212.5V154.5H0.5V231.5H79.5V164.5H24V206.5H51V190H39.5V184H59.5V212.5H15.5Z" fill="#F1BE36" stroke="#F1BE36"/>
<path d="M23 561.5H34V544.5V543V541.5H61.5V561.5H50V576H40V598H24.5V611H15.5V618.5H0.5V600H8.5V582H23V561.5Z" fill="#F1BE36"/>
<path d="M34 543V544.5M34 544.5V561.5H23V582H8.5V600H0.5V618.5H15.5V611H24.5V598H40V576H50V561.5H61.5V541.5H34V544.5Z" stroke="#F1BE36"/>
<path d="M15.5 522.5V464.5H0.5V541.5H79.5V474.5H24V516.5H51V500H39.5V494H59.5V522.5H15.5Z" fill="#F1BE36" stroke="#F1BE36"/>
<path d="M23 406.5H34V389.5V388V386.5H61.5V406.5H50V421H40V443H24.5V456H15.5V463.5H0.5V445H8.5V427H23V406.5Z" fill="#F1BE36"/>
<path d="M34 388V389.5M34 389.5V406.5H23V427H8.5V445H0.5V463.5H15.5V456H24.5V443H40V421H50V406.5H61.5V386.5H34V389.5Z" stroke="#F1BE36"/>
<path d="M15.5 367.5V309.5H0.5V386.5H79.5V319.5H24V361.5H51V345H39.5V339H59.5V367.5H15.5Z" fill="#F1BE36" stroke="#F1BE36"/>
</svg>
