<svg width="641" height="82" viewBox="0 0 641 82" fill="none" xmlns="http://www.w3.org/2000/svg">
<path d="M0.50013 55V57.5L1.00013 79.5C18.0001 80.5 17.5001 80.5 22.5001 80.5C29.6668 80.5 47.8356 82.6604 63.0001 79C77.5001 75.5 86.6668 61.8333 90.0001 50L92.0001 37.25L91.5001 31L160 79V55L123.5 31L98.0001 12.5C92.5001 9.5 80.7001 3.2 77.5001 2C73.5001 0.5 67.5001 0.5 58.0001 0.5C50.4001 0.5 44.1668 1.5 42.0001 2C38.8335 3.5 31.6001 7.7 28.0001 12.5C23.5001 18.5 22.0001 24.5 22.0001 31C22.0001 37.5 23.5001 41.5 24.5001 45C25.5001 48.5 39.0001 57.5 45.0001 57.5C49.8001 57.5 58.0001 49.1667 61.5001 45C62.1668 41.5 63.1001 33.5 61.5001 29.5C59.9001 25.5 55.5001 24.5 53.5001 24.5C52.0001 25 48.9001 26.1 48.5001 26.5C48.1001 26.9 46.0001 33.3333 45.0001 36.5C43.1668 37.5 39.0001 38.9 37.0001 36.5C35.0001 34.1 36.1668 27.5 37.0001 24.5C39.0001 21.3333 45.1001 14.5 53.5001 12.5C61.9001 10.5 70.3335 23 73.5001 29.5V45C73.5001 52.6 58.1668 61.5 50.5001 65C44.3335 65.3333 30.5001 65.8 24.5001 65L13.0001 61L3.50013 56.5L0.50013 55Z" fill="#FF4245"/>
<path d="M480.5 55V57.5L481 79.5C498 80.5 497.5 80.5 502.5 80.5C509.667 80.5 527.836 82.6604 543 79C557.5 75.5 566.667 61.8333 570 50L572 37.25L571.5 31L640 79V55L603.5 31L578 12.5C572.5 9.5 560.7 3.2 557.5 2C553.5 0.5 547.5 0.5 538 0.5C530.4 0.5 524.167 1.5 522 2C518.833 3.5 511.6 7.7 508 12.5C503.5 18.5 502 24.5 502 31C502 37.5 503.5 41.5 504.5 45C505.5 48.5 519 57.5 525 57.5C529.8 57.5 538 49.1667 541.5 45C542.167 41.5 543.1 33.5 541.5 29.5C539.9 25.5 535.5 24.5 533.5 24.5C532 25 528.9 26.1 528.5 26.5C528.1 26.9 526 33.3333 525 36.5C523.167 37.5 519 38.9 517 36.5C515 34.1 516.167 27.5 517 24.5C519 21.3333 525.1 14.5 533.5 12.5C541.9 10.5 550.333 23 553.5 29.5V45C553.5 52.6 538.167 61.5 530.5 65C524.333 65.3333 510.5 65.8 504.5 65L493 61L483.5 56.5L480.5 55Z" fill="#FF4245"/>
<path d="M160.5 55V57.5L161 79.5C178 80.5 177.5 80.5 182.5 80.5C189.667 80.5 207.836 82.6604 223 79C237.5 75.5 246.667 61.8333 250 50L252 37.25L251.5 31L320 79V55L283.5 31L258 12.5C252.5 9.5 240.7 3.2 237.5 2C233.5 0.5 227.5 0.5 218 0.5C210.4 0.5 204.167 1.5 202 2C198.833 3.5 191.6 7.7 188 12.5C183.5 18.5 182 24.5 182 31C182 37.5 183.5 41.5 184.5 45C185.5 48.5 199 57.5 205 57.5C209.8 57.5 218 49.1667 221.5 45C222.167 41.5 223.1 33.5 221.5 29.5C219.9 25.5 215.5 24.5 213.5 24.5C212 25 208.9 26.1 208.5 26.5C208.1 26.9 206 33.3333 205 36.5C203.167 37.5 199 38.9 197 36.5C195 34.1 196.167 27.5 197 24.5C199 21.3333 205.1 14.5 213.5 12.5C221.9 10.5 230.333 23 233.5 29.5V45C233.5 52.6 218.167 61.5 210.5 65C204.333 65.3333 190.5 65.8 184.5 65L173 61L163.5 56.5L160.5 55Z" fill="#FF4245"/>
<path d="M320.5 55V57.5L321 79.5C338 80.5 337.5 80.5 342.5 80.5C349.667 80.5 367.836 82.6604 383 79C397.5 75.5 406.667 61.8333 410 50L412 37.25L411.5 31L480 79V55L443.5 31L418 12.5C412.5 9.5 400.7 3.2 397.5 2C393.5 0.5 387.5 0.5 378 0.5C370.4 0.5 364.167 1.5 362 2C358.833 3.5 351.6 7.7 348 12.5C343.5 18.5 342 24.5 342 31C342 37.5 343.5 41.5 344.5 45C345.5 48.5 359 57.5 365 57.5C369.8 57.5 378 49.1667 381.5 45C382.167 41.5 383.1 33.5 381.5 29.5C379.9 25.5 375.5 24.5 373.5 24.5C372 25 368.9 26.1 368.5 26.5C368.1 26.9 366 33.3333 365 36.5C363.167 37.5 359 38.9 357 36.5C355 34.1 356.167 27.5 357 24.5C359 21.3333 365.1 14.5 373.5 12.5C381.9 10.5 390.333 23 393.5 29.5V45C393.5 52.6 378.167 61.5 370.5 65C364.333 65.3333 350.5 65.8 344.5 65L333 61L323.5 56.5L320.5 55Z" fill="#FF4245"/>
<path d="M0.50013 55V57.5L1.00013 79.5C18.0001 80.5 17.5001 80.5 22.5001 80.5C29.6668 80.5 47.8356 82.6604 63.0001 79C77.5001 75.5 86.6668 61.8333 90.0001 50L92.0001 37.25L91.5001 31L160 79V55L123.5 31L98.0001 12.5C92.5001 9.5 80.7001 3.2 77.5001 2C73.5001 0.5 67.5001 0.5 58.0001 0.5C50.4001 0.5 44.1668 1.5 42.0001 2C38.8335 3.5 31.6001 7.7 28.0001 12.5C23.5001 18.5 22.0001 24.5 22.0001 31C22.0001 37.5 23.5001 41.5 24.5001 45C25.5001 48.5 39.0001 57.5 45.0001 57.5C49.8001 57.5 58.0001 49.1667 61.5001 45C62.1668 41.5 63.1001 33.5 61.5001 29.5C59.9001 25.5 55.5001 24.5 53.5001 24.5C52.0001 25 48.9001 26.1 48.5001 26.5C48.1001 26.9 46.0001 33.3333 45.0001 36.5C43.1668 37.5 39.0001 38.9 37.0001 36.5C35.0001 34.1 36.1668 27.5 37.0001 24.5C39.0001 21.3333 45.1001 14.5 53.5001 12.5C61.9001 10.5 70.3335 23 73.5001 29.5V45C73.5001 52.6 58.1668 61.5 50.5001 65C44.3335 65.3333 30.5001 65.8 24.5001 65L13.0001 61L3.50013 56.5L0.50013 55Z" stroke="#FF4245"/>
<path d="M480.5 55V57.5L481 79.5C498 80.5 497.5 80.5 502.5 80.5C509.667 80.5 527.836 82.6604 543 79C557.5 75.5 566.667 61.8333 570 50L572 37.25L571.5 31L640 79V55L603.5 31L578 12.5C572.5 9.5 560.7 3.2 557.5 2C553.5 0.5 547.5 0.5 538 0.5C530.4 0.5 524.167 1.5 522 2C518.833 3.5 511.6 7.7 508 12.5C503.5 18.5 502 24.5 502 31C502 37.5 503.5 41.5 504.5 45C505.5 48.5 519 57.5 525 57.5C529.8 57.5 538 49.1667 541.5 45C542.167 41.5 543.1 33.5 541.5 29.5C539.9 25.5 535.5 24.5 533.5 24.5C532 25 528.9 26.1 528.5 26.5C528.1 26.9 526 33.3333 525 36.5C523.167 37.5 519 38.9 517 36.5C515 34.1 516.167 27.5 517 24.5C519 21.3333 525.1 14.5 533.5 12.5C541.9 10.5 550.333 23 553.5 29.5V45C553.5 52.6 538.167 61.5 530.5 65C524.333 65.3333 510.5 65.8 504.5 65L493 61L483.5 56.5L480.5 55Z" stroke="#FF4245"/>
<path d="M160.5 55V57.5L161 79.5C178 80.5 177.5 80.5 182.5 80.5C189.667 80.5 207.836 82.6604 223 79C237.5 75.5 246.667 61.8333 250 50L252 37.25L251.5 31L320 79V55L283.5 31L258 12.5C252.5 9.5 240.7 3.2 237.5 2C233.5 0.5 227.5 0.5 218 0.5C210.4 0.5 204.167 1.5 202 2C198.833 3.5 191.6 7.7 188 12.5C183.5 18.5 182 24.5 182 31C182 37.5 183.5 41.5 184.5 45C185.5 48.5 199 57.5 205 57.5C209.8 57.5 218 49.1667 221.5 45C222.167 41.5 223.1 33.5 221.5 29.5C219.9 25.5 215.5 24.5 213.5 24.5C212 25 208.9 26.1 208.5 26.5C208.1 26.9 206 33.3333 205 36.5C203.167 37.5 199 38.9 197 36.5C195 34.1 196.167 27.5 197 24.5C199 21.3333 205.1 14.5 213.5 12.5C221.9 10.5 230.333 23 233.5 29.5V45C233.5 52.6 218.167 61.5 210.5 65C204.333 65.3333 190.5 65.8 184.5 65L173 61L163.5 56.5L160.5 55Z" stroke="#FF4245"/>
<path d="M320.5 55V57.5L321 79.5C338 80.5 337.5 80.5 342.5 80.5C349.667 80.5 367.836 82.6604 383 79C397.5 75.5 406.667 61.8333 410 50L412 37.25L411.5 31L480 79V55L443.5 31L418 12.5C412.5 9.5 400.7 3.2 397.5 2C393.5 0.5 387.5 0.5 378 0.5C370.4 0.5 364.167 1.5 362 2C358.833 3.5 351.6 7.7 348 12.5C343.5 18.5 342 24.5 342 31C342 37.5 343.5 41.5 344.5 45C345.5 48.5 359 57.5 365 57.5C369.8 57.5 378 49.1667 381.5 45C382.167 41.5 383.1 33.5 381.5 29.5C379.9 25.5 375.5 24.5 373.5 24.5C372 25 368.9 26.1 368.5 26.5C368.1 26.9 366 33.3333 365 36.5C363.167 37.5 359 38.9 357 36.5C355 34.1 356.167 27.5 357 24.5C359 21.3333 365.1 14.5 373.5 12.5C381.9 10.5 390.333 23 393.5 29.5V45C393.5 52.6 378.167 61.5 370.5 65C364.333 65.3333 350.5 65.8 344.5 65L333 61L323.5 56.5L320.5 55Z" stroke="#FF4245"/>
</svg>
